ModelForces
version=1
nRows=4
nColumns=155
inDegrees=no

This file contains the forces exerted on a model during a simulation.

A force is a generalized force, meaning that it can be either a force (N) or a torque (Nm).

Units are S.I. units (second, meters, Newtons, ...)
Angles are in degrees.

endheader
time	glut_med1_r	glut_med2_r	glut_med3_r	glut_min1_r	glut_min2_r	glut_min3_r	semimem_r	semiten_r	bifemlh_r	bifemsh_r	sar_r	add_long_r	add_brev_r	add_mag1_r	add_mag2_r	add_mag3_r	tfl_r	pect_r	grac_r	glut_max1_r	glut_max2_r	glut_max3_r	iliacus_r	psoas_r	quad_fem_r	gem_r	peri_r	rect_fem_r	vas_med_r	vas_int_r	vas_lat_r	med_gas_r	lat_gas_r	soleus_r	tib_post_r	flex_dig_r	flex_hal_r	tib_ant_r	per_brev_r	per_long_r	per_tert_r	ext_dig_r	ext_hal_r	glut_med1_l	glut_med2_l	glut_med3_l	glut_min1_l	glut_min2_l	glut_min3_l	semimem_l	semiten_l	bifemlh_l	bifemsh_l	sar_l	add_long_l	add_brev_l	add_mag1_l	add_mag2_l	add_mag3_l	tfl_l	pect_l	grac_l	glut_max1_l	glut_max2_l	glut_max3_l	iliacus_l	psoas_l	quad_fem_l	gem_l	peri_l	rect_fem_l	vas_med_l	vas_int_l	vas_lat_l	med_gas_l	lat_gas_l	soleus_l	tib_post_l	flex_dig_l	flex_hal_l	tib_ant_l	per_brev_l	per_long_l	per_tert_l	ext_dig_l	ext_hal_l	ercspn_r	ercspn_l	intobl_r	intobl_l	extobl_r	extobl_l	femur_lat_meniscii_r.femur_lat_r.force.X	femur_lat_meniscii_r.femur_lat_r.force.Y	femur_lat_meniscii_r.femur_lat_r.force.Z	femur_lat_meniscii_r.femur_lat_r.torque.X	femur_lat_meniscii_r.femur_lat_r.torque.Y	femur_lat_meniscii_r.femur_lat_r.torque.Z	femur_lat_meniscii_r.meniscus_lat_r.force.X	femur_lat_meniscii_r.meniscus_lat_r.force.Y	femur_lat_meniscii_r.meniscus_lat_r.force.Z	femur_lat_meniscii_r.meniscus_lat_r.torque.X	femur_lat_meniscii_r.meniscus_lat_r.torque.Y	femur_lat_meniscii_r.meniscus_lat_r.torque.Z	femur_med_meniscii_r.femur_med_r.force.X	femur_med_meniscii_r.femur_med_r.force.Y	femur_med_meniscii_r.femur_med_r.force.Z	femur_med_meniscii_r.femur_med_r.torque.X	femur_med_meniscii_r.femur_med_r.torque.Y	femur_med_meniscii_r.femur_med_r.torque.Z	femur_med_meniscii_r.meniscus_med_r.force.X	femur_med_meniscii_r.meniscus_med_r.force.Y	femur_med_meniscii_r.meniscus_med_r.force.Z	femur_med_meniscii_r.meniscus_med_r.torque.X	femur_med_meniscii_r.meniscus_med_r.torque.Y	femur_med_meniscii_r.meniscus_med_r.torque.Z	femur_med_tibia_r.tibia_upper_r.force.X	femur_med_tibia_r.tibia_upper_r.force.Y	femur_med_tibia_r.tibia_upper_r.force.Z	femur_med_tibia_r.tibia_upper_r.torque.X	femur_med_tibia_r.tibia_upper_r.torque.Y	femur_med_tibia_r.tibia_upper_r.torque.Z	femur_med_tibia_r.femur_med_r.force.X	femur_med_tibia_r.femur_med_r.force.Y	femur_med_tibia_r.femur_med_r.force.Z	femur_med_tibia_r.femur_med_r.torque.X	femur_med_tibia_r.femur_med_r.torque.Y	femur_med_tibia_r.femur_med_r.torque.Z	femur_lat_tibia_r.tibia_upper_r.force.X	femur_lat_tibia_r.tibia_upper_r.force.Y	femur_lat_tibia_r.tibia_upper_r.force.Z	femur_lat_tibia_r.tibia_upper_r.torque.X	femur_lat_tibia_r.tibia_upper_r.torque.Y	femur_lat_tibia_r.tibia_upper_r.torque.Z	femur_lat_tibia_r.femur_lat_r.force.X	femur_lat_tibia_r.femur_lat_r.force.Y	femur_lat_tibia_r.femur_lat_r.force.Z	femur_lat_tibia_r.femur_lat_r.torque.X	femur_lat_tibia_r.femur_lat_r.torque.Y	femur_lat_tibia_r.femur_lat_r.torque.Z	aACL_R	pACL_R	aPCL_R	pPCL_R	aMCL_R	mMCL_R	pMCL_R	aLCL_R	mLCL_R	pLCL_R	aPCL_L	pPCL_L	aMCL_L	aLCL_L
      0.16452061	     11.43169449	      8.34624750	      8.97680049	      3.85356706	      4.47923991	      4.84810412	      0.00000000	    166.49489643	    138.76260933	    296.09571993	    130.50031755	      8.30664156	      5.98104198	      3.43569727	      3.63949775	      6.13476263	      4.96062888	      3.25272604	     99.97158483	      5.38905065	      8.19812314	      6.16077140	     27.54828081	     18.53045786	      5.29907331	      3.65617696	      6.24207513	     53.88617954	     31.09856401	     33.26164097	     44.93040429	      0.00000000	      0.00000000	      0.00000000	      0.00000000	      0.00000000	      0.00000000	     33.95338261	      2.33851119	      2.91880455	      2.61877202	     42.32644464	     10.81714311	     11.43169449	      8.34624750	      8.97680049	      3.85356706	      4.47923991	      4.84810412	      0.00000000	      6.18498252	     12.21080533	     10.54712156	      2.19875544	      8.30664156	      5.98104198	      3.43569727	      3.63949775	      6.13476263	      5.42528383	      3.25272604	      2.26982233	      5.38905065	      8.19812314	      6.16077140	     27.54828081	     18.53045786	      5.29907331	      3.65617696	      6.24207513	     17.00972295	      0.00000000	      0.00000000	      0.00000000	     21.17044466	     10.00202054	     50.78845829	     50.97331382	      5.44915711	      4.87542500	     13.23609220	      7.08041571	     18.18195426	      2.86507415	      8.82965954	      2.77381930	     36.27243334	     36.27243334	     13.47758763	     13.47758763	     30.84121395	     30.84121395	    104.06502727	    187.25662516	     22.35490222	    -13.54194339	      2.52507862	     40.66985291	   -104.06502727	   -187.25662516	    -22.35490222	      5.19259178	     -3.14330230	      3.37605584	     24.59967693	     22.17548325	     11.93368125	     -4.30670200	     -0.55665536	      9.86576096	    -24.59967693	    -22.17548325	    -11.93368125	     -0.26888251	      0.27376910	      0.09185712	   -755.86755606	   -689.73410421	    221.83711741	    -15.94624296	     17.06769664	     -1.25413650	    755.86755606	    689.73410421	   -221.83711741	    102.68070682	    -13.65661095	    307.39095501	      0.00000000	      0.00000000	      0.00000000	      0.00000000	      0.00000000	      0.00000000	      0.00000000	      0.00000000	      0.00000000	      0.00000000	      0.00000000	      0.00000000	     -2.72171797	      0.00000000	    578.34060076	    374.97909384	      0.00000000	      0.00000000	      0.00000000	      0.00000000	      0.00000000	      0.00000000	      0.00000000	      0.00000000	      0.00000001	      0.00000000
      0.16458461	     11.42860198	      8.34398491	      8.97433784	      3.85256518	      4.47814361	      4.84670404	      0.00000000	    166.50048546	    138.77979977	    296.11694327	    130.49530291	      8.30436382	      5.97950145	      3.45309136	      3.63849321	      6.13294246	      4.95838253	      3.25187433	     99.96590901	      5.38758389	      8.19588681	      6.15906479	     27.54411104	     18.52570257	      5.29766563	      3.65548917	      6.24139702	     53.94579238	     31.11367350	     33.27076834	     44.93608739	      0.00000000	      0.00000000	      0.00000000	      0.00000000	      0.00000000	      0.00000000	     33.96386786	      2.33566445	      2.91800950	      8.64003225	     42.38408102	     10.83336357	     11.42860198	      8.34398491	      8.97433784	      3.85256518	      4.47814361	      4.84670404	      0.00000000	      6.18319975	     12.20735665	     10.54431652	      2.19818646	      8.30436382	      5.97950145	      3.45309136	      3.63849321	      6.13294246	      5.42416237	      3.25187433	      2.26922464	      5.38758389	      8.19588681	      6.15906479	     27.54411104	     18.52570257	      5.29766563	      3.65548917	      6.24139702	     17.00446716	      0.00000000	      0.00000000	      0.00000000	     21.16889977	     10.00106606	     50.77586640	     50.96664854	      5.44771696	      4.87411668	     13.23223215	      7.07822893	     18.17786940	      2.86434161	      8.82685315	      2.77298124	     36.26298178	     36.26298178	     13.47379352	     13.47379352	     30.83777395	     30.83777395	    104.18013263	    187.54671008	     22.32829303	    -13.53889912	      2.52672094	     40.71163232	   -104.18013263	   -187.54671008	    -22.32829303	      5.20022093	     -3.14493078	      3.38792424	     24.61769867	     22.11136015	     11.88386770	     -4.28787930	     -0.55715743	      9.87296091	    -24.61769867	    -22.11136015	    -11.88386770	     -0.26865622	      0.27510503	      0.09079699	   -756.36389836	   -690.10127223	    222.05868427	    -15.95099525	     17.08229649	     -1.22946630	    756.36389836	    690.10127223	   -222.05868427	    102.77433157	    -13.66544473	    307.58096569	      0.00000000	      0.00000000	      0.00000000	      0.00000000	      0.00000000	      0.00000000	      0.00000000	      0.00000000	      0.00000000	      0.00000000	      0.00000000	      0.00000000	     -2.72797583	      0.00000000	    578.98397133	    375.28361151	      0.00000000	      0.00000000	      0.00000000	      0.00000000	      0.00000000	      0.00000000	      0.00000000	      0.00000000	      0.00000001	      0.00000000
      0.16482855	     11.41682906	      8.33537886	      8.96497087	      3.84875433	      4.47397366	      4.84137853	      0.00000000	    166.52021405	    138.84618061	    296.19586495	    130.47620010	      8.29570018	      5.97364172	      3.51529556	      3.63467233	      6.12601918	      4.94974729	      3.24863467	     99.94389649	      5.38200493	      8.18738070	      6.15257355	     27.52825127	     18.50761585	      5.29231129	      3.65287321	      6.23879731	     54.16218047	     31.12884370	     33.27989175	     44.93990388	      0.00000000	      0.00000000	      0.00000000	      0.00000000	      0.00000000	      0.00000000	     34.00314871	      2.32509830	      2.91519133	     27.06977021	     42.56342058	     10.87882158	     11.41682906	      8.33537886	      8.96497087	      3.84875433	      4.47397366	      4.84137853	      0.00000000	      6.17641886	     12.19422797	     10.53364713	      2.19602223	      8.29570018	      5.97364172	      3.51529556	      3.63467233	      6.12601918	      5.41989661	      3.24863467	      2.26695120	      5.38200493	      8.18738070	      6.15257355	     27.52825127	     18.50761585	      5.29231129	      3.65287321	      6.23879731	     16.98447377	      0.00000000	      0.00000000	      0.00000000	     21.16296542	      9.99740802	     50.72788331	     50.94128240	      5.44221627	      4.86911373	     13.21754344	      7.06990834	     18.16231756	      2.86155539	      8.81622221	      2.76981137	     36.22703089	     36.22703089	     13.45936230	     13.45936230	     30.82468994	     30.82468994	    105.41592343	    188.09695703	     22.20177721	    -13.50304415	      2.55948278	     41.21149429	   -105.41592343	   -188.09695703	    -22.20177721	      5.21390835	     -3.17833870	      3.38907125	     24.98348340	     22.04746570	     11.73459137	     -4.22858707	     -0.56688766	     10.02237730	    -24.98348340	    -22.04746570	    -11.73459137	     -0.27073880	      0.28673290	      0.08326098	   -759.03613342	   -689.72693339	    222.98420438	    -15.94524583	     17.15225758	     -1.21064083	    759.03613342	    689.72693339	   -222.98420438	    103.13599455	    -13.71294793	    308.64548119	      0.00000000	      0.00000000	      0.00000000	      0.00000000	      0.00000000	      0.00000000	      0.00000000	      0.00000000	      0.00000000	      0.00000000	      0.00000000	      0.00000000	     -2.69416381	      0.00000000	    581.43809224	    376.46452575	      0.00000000	      0.00000000	      0.00000000	      0.00000000	      0.00000000	      0.00000000	      0.00000000	      0.00000000	      0.00000001	      0.00000000
      0.16507249	     11.40507876	      8.32680098	      8.95563464	      3.84495582	      4.46981734	      4.83607021	      0.00000000	    166.53719555	    138.91613918	    296.28218995	    130.45643334	      8.28706498	      5.96780093	      3.57152620	      3.63086397	      6.11911852	      4.94100248	      3.24540555	     99.92087809	      5.37644432	      8.17890257	      6.14610370	     27.51244415	     18.48958931	      5.28697440	      3.65026602	      6.23617388	     54.37332754	     31.12392690	     33.27566491	     44.93306639	      0.00000000	      0.00000000	      0.00000000	      0.00000000	      0.00000000	      0.00000000	     34.04190953	      2.31469767	      2.91246109	     23.77830138	     42.72550525	     10.91710131	     11.40507876	      8.32680098	      8.95563464	      3.84495582	      4.46981734	      4.83607021	      0.00000000	      6.16966026	     12.18112473	     10.52301253	      2.19386500	      8.28706498	      5.96780093	      3.57152620	      3.63086397	      6.11911852	      5.41564457	      3.24540555	      2.26468515	      5.37644432	      8.17890257	      6.14610370	     27.51244415	     18.48958931	      5.28697440	      3.65026602	      6.23617388	     16.96454216	      0.00000000	      0.00000000	      0.00000000	     21.15695851	      9.99371844	     50.67991846	     50.91597734	      5.43669713	      4.86408483	     13.20289251	      7.06161043	     18.14679366	      2.85877841	      8.80569478	      2.76668003	     36.19119658	     36.19119658	     13.44497852	     13.44497852	     30.81164954	     30.81164954	    107.04350063	    186.28021975	     21.17348810	    -13.02347343	      2.59556785	     41.89420963	   -107.04350063	   -186.28021975	    -21.17348810	      5.12865243	     -3.19702909	      3.30994403	     25.07609849	     21.89603449	     11.64429437	     -4.19544321	     -0.56807040	     10.05882534	    -25.07609849	    -21.89603449	    -11.64429437	     -0.26958321	      0.28902381	      0.08137313	   -761.63407986	   -689.32075236	    222.95530642	    -15.91211666	     17.19159779	     -1.19151718	    761.63407986	    689.32075236	   -222.95530642	    103.10161446	    -13.74940531	    309.68055360	      0.00000000	      0.00000000	      0.00000000	      0.00000000	      0.00000000	      0.00000000	      0.00000000	      0.00000000	      0.00000000	      0.00000000	      0.00000000	      0.00000000	     -2.68216750	      0.00000000	    583.89943099	    377.69097605	      0.00000000	      0.00000000	      0.00000000	      0.00000000	      0.00000000	      0.00000000	      0.00000000	      0.00000000	      0.00000001	      0.00000000
